<svg width="845" height="1024" viewBox="0 0 845 1024" fill="none" xmlns="http://www.w3.org/2000/svg">
<rect width="845" height="1024" fill="url(#paint0_linear_603_873)"/>
<path d="M250.125 776.058C275.634 870.992 373.487 927.33 468.688 901.892C563.888 876.455 620.384 778.875 594.875 683.942C569.366 589.008 471.513 532.67 376.312 558.108C281.112 583.545 224.616 681.125 250.125 776.058Z" fill="url(#paint1_radial_603_873)"/>
<path fill-rule="evenodd" clip-rule="evenodd" d="M426.053 536.196C426.032 534.98 425.038 534 423.813 534C422.697 534 421.771 534.816 421.602 535.882L358.002 543.949C357.577 542.697 356.39 541.796 354.991 541.796C353.237 541.796 351.815 543.215 351.815 544.965C351.815 545.399 351.903 545.812 352.061 546.189L310.015 574.667C309.679 574.41 309.259 574.257 308.804 574.257C307.702 574.257 306.809 575.148 306.809 576.246C306.809 576.55 306.877 576.838 306.999 577.095L271.806 610.567C271.292 610.208 270.666 609.997 269.99 609.997C268.235 609.997 266.814 611.417 266.814 613.167C266.814 614.155 267.268 615.039 267.979 615.619L237.276 673.739C237.132 673.71 236.982 673.694 236.828 673.694C235.592 673.694 234.589 674.695 234.589 675.928C234.589 676.842 235.14 677.629 235.928 677.975L231.95 708.54C230.301 708.656 229 710.027 229 711.701C229 713.294 230.179 714.613 231.713 714.837L235.92 792.47C234.705 792.916 233.839 794.08 233.839 795.445C233.839 797.195 235.261 798.614 237.015 798.614C237.508 798.614 237.974 798.503 238.39 798.302L304.99 886.009C304.496 886.567 304.196 887.3 304.196 888.104C304.196 889.854 305.619 891.273 307.373 891.273C308.589 891.273 309.647 890.589 310.18 889.587L385.461 911.751L387.564 913.086C387.501 913.292 387.467 913.511 387.467 913.738C387.467 914.972 388.47 915.972 389.706 915.972C390.762 915.972 391.646 915.244 391.884 914.263L393.794 914.204L418.764 921.556C418.757 921.647 418.752 921.738 418.752 921.831C418.752 923.581 420.175 925 421.929 925C423.641 925 425.036 923.649 425.103 921.958L490.316 911.473C490.677 912.224 491.446 912.743 492.337 912.743C493.573 912.743 494.576 911.743 494.576 910.509C494.576 910.276 494.54 910.052 494.474 909.841L534.975 882.807C535.549 883.375 536.339 883.726 537.211 883.726C538.966 883.726 540.388 882.307 540.388 880.557C540.388 879.994 540.241 879.465 539.982 879.007L575.896 848.154C576.246 848.38 576.664 848.511 577.112 848.511C578.349 848.511 579.351 847.511 579.351 846.277C579.351 845.638 579.083 845.063 578.652 844.655L609.319 784.798C609.592 784.874 609.88 784.916 610.177 784.916C611.931 784.916 613.353 783.496 613.353 781.746C613.353 780.338 612.432 779.144 611.157 778.731L615.143 744.157C616.197 743.976 617 743.059 617 741.955C617 740.895 616.26 740.007 615.268 739.778L610.941 664.548C612.305 664.192 613.311 662.954 613.311 661.482C613.311 659.732 611.889 658.314 610.135 658.314C609.638 658.314 609.168 658.428 608.75 658.63L540.997 569.791C541.488 569.232 541.786 568.501 541.786 567.7C541.786 565.95 540.364 564.53 538.61 564.53C537.371 564.53 536.298 565.238 535.775 566.27L460.358 545.584C460.362 545.512 460.365 545.439 460.365 545.366C460.365 543.616 458.943 542.198 457.189 542.198C455.949 542.198 454.876 542.907 454.352 543.939L426.053 536.196ZM423.403 538.431C423.536 538.456 423.673 538.469 423.813 538.469C424.349 538.469 424.841 538.28 425.225 537.968L434.959 544.651L420.26 544.593L423.403 538.431ZM422.278 537.86L418.849 544.587L401.911 544.521L421.993 537.535C422.078 537.653 422.173 537.761 422.278 537.86ZM454.127 546.209C454.105 546.135 454.088 546.059 454.072 545.983L439.037 545.924L445.676 550.482L454.127 546.209ZM457.231 548.534C457.217 548.536 457.203 548.535 457.189 548.535C456.178 548.535 455.278 548.065 454.696 547.33L446.858 551.294L451.591 554.543C450.632 554.385 449.671 554.234 448.708 554.09L445.578 551.941L365.641 592.364C365.748 592.708 365.804 593.073 365.804 593.452C365.804 593.59 365.796 593.726 365.782 593.861L471.401 624.375C471.799 623.557 472.493 622.908 473.343 622.565L457.231 548.534ZM459.502 547.537C459.211 547.847 458.858 548.097 458.463 548.27L474.575 622.299C474.628 622.297 474.68 622.296 474.733 622.296C476.154 622.296 477.388 623.093 478.009 624.262L545.44 602.24C545.426 602.118 545.419 601.996 545.419 601.871C545.419 601.484 545.489 601.113 545.616 600.77L459.502 547.537ZM546.281 599.701L461.234 547.129L535.441 567.483C535.436 567.554 535.434 567.627 535.434 567.7C535.434 567.883 535.45 568.063 535.48 568.239L513.144 576.895C513.603 577.165 514.061 577.437 514.518 577.711L535.936 569.411C536.501 570.288 537.488 570.868 538.61 570.868C538.7 570.868 538.788 570.864 538.876 570.857L547.118 599.066C546.804 599.23 546.522 599.446 546.281 599.701ZM548.329 598.714L541.605 575.702L557.028 609.164L551.268 603.585C551.587 603.09 551.772 602.502 551.772 601.871C551.772 600.121 550.35 598.703 548.595 598.703C548.506 598.703 548.417 598.707 548.329 598.714ZM550.389 604.486L558.488 612.331L561.183 618.179C562.32 619.578 563.437 620.998 564.533 622.435L560.995 614.76L607.461 659.771C607.424 659.83 607.388 659.89 607.354 659.951L582.967 652.391C583.217 652.904 583.464 653.42 583.709 653.937L606.976 661.15C606.964 661.26 606.959 661.37 606.959 661.482C606.959 662.083 607.127 662.646 607.418 663.125L573.567 693.7C572.937 693.208 572.144 692.915 571.282 692.915C571.203 692.915 571.125 692.917 571.047 692.922L549.931 604.747C550.092 604.672 550.245 604.585 550.389 604.486ZM548.705 605.038L569.821 693.213C569.406 693.39 569.03 693.642 568.71 693.951L478.052 627.64C478.3 627.144 478.44 626.584 478.44 625.992C478.44 625.811 478.427 625.632 478.401 625.458L545.832 603.435C546.379 604.393 547.411 605.04 548.595 605.04C548.632 605.04 548.669 605.039 548.705 605.038ZM477.305 628.654L567.964 694.964C567.716 695.461 567.576 696.02 567.576 696.612C567.576 696.97 567.628 697.318 567.723 697.646L478.724 740.99C478.071 740.045 477.04 739.378 475.849 739.206L475.38 629.634C476.121 629.503 476.786 629.153 477.305 628.654ZM474.12 629.638L474.588 739.211C473.646 739.355 472.806 739.81 472.176 740.466L391.041 683.415C391.328 682.846 391.49 682.203 391.49 681.522C391.49 680.912 391.361 680.333 391.127 679.811L471.992 628.479C472.539 629.079 473.282 629.499 474.12 629.638ZM471.315 627.419L390.45 678.749C389.674 677.859 388.53 677.297 387.254 677.297C387.072 677.297 386.891 677.309 386.714 677.331L363.705 596.784C364.456 596.422 365.066 595.816 365.431 595.069L471.05 625.584C471.036 625.718 471.028 625.855 471.028 625.992C471.028 626.498 471.129 626.98 471.315 627.419ZM362.493 597.127L385.501 677.675C384.082 678.319 383.083 679.722 383.023 681.364L295.079 691.218C294.905 690.618 294.581 690.08 294.152 689.647L360.492 596.784C360.978 597.018 361.523 597.148 362.099 597.148C362.231 597.148 362.363 597.141 362.493 597.127ZM359.466 596.053L293.126 688.916C292.64 688.683 292.095 688.551 291.519 688.551C291.406 688.551 291.294 688.557 291.183 688.566L274.173 625.206L284.69 610.662L358.659 594.831C358.845 595.291 359.121 595.706 359.466 596.053ZM358.396 593.601L285.79 609.141L299.31 590.447L307.185 584.129L305.758 595.571C306.23 595.164 306.703 594.758 307.179 594.355L308.597 582.995L314.337 578.39L324.803 581.222C325.276 580.914 325.75 580.608 326.225 580.303L315.552 577.416L321.831 572.378L356.598 560.283L360.945 589.937C359.463 590.42 358.392 591.811 358.392 593.452C358.392 593.501 358.393 593.551 358.396 593.601ZM362.193 589.755L357.811 559.862L398.335 545.765L418.208 545.843L414.901 552.33C415.382 552.309 415.863 552.29 416.345 552.272L419.621 545.848L436.8 545.916L444.395 551.129L365.07 591.243C364.412 590.363 363.372 589.785 362.193 589.755ZM287.852 692.789C287.827 692.613 287.814 692.432 287.814 692.249C287.814 690.76 288.695 689.479 289.965 688.891L273.221 626.522L257.262 648.589L248.476 671.304L254.954 669.122C254.769 669.625 254.588 670.128 254.407 670.633L247.886 672.831L242.517 686.709L247.28 696.766C247.146 697.469 247.015 698.174 246.888 698.881L241.89 688.33L237.437 699.841L237.428 709.317L287.852 692.789ZM290.218 695.711C289.37 695.393 288.668 694.774 288.246 693.984L237.427 710.641L237.415 722.984L269.235 801.708C269.495 801.631 269.768 801.582 270.05 801.564L290.218 695.711ZM293.181 695.554C292.681 695.804 292.117 695.945 291.519 695.945C291.498 695.945 291.478 695.945 291.456 695.945L271.307 801.698C272.377 802.003 273.249 802.775 273.687 803.778L356.472 785.192C356.468 785.131 356.467 785.067 356.467 785.005C356.467 784.012 356.86 783.111 357.498 782.446L293.181 695.554ZM295.218 692.468C295.165 693.374 294.786 694.192 294.194 694.806L358.511 781.699C359.011 781.45 359.575 781.308 360.172 781.308C360.278 781.308 360.383 781.313 360.487 781.321L385.588 685.407C384.404 684.901 383.5 683.873 383.162 682.614L295.218 692.468ZM390.315 684.443C389.544 685.247 388.458 685.747 387.254 685.747C387.103 685.747 386.955 685.738 386.807 685.723L361.707 781.639C362.416 781.962 363.005 782.499 363.389 783.169L471.054 744.056C471.02 743.838 471.001 743.615 471.001 743.387C471.001 742.706 471.162 742.063 471.449 741.494L390.315 684.443ZM473.401 747.196C472.55 746.786 471.855 746.101 471.437 745.255L363.82 784.351C363.859 784.563 363.879 784.781 363.879 785.005C363.879 785.618 363.729 786.195 363.465 786.704L451.702 853.427C452.364 852.81 453.254 852.432 454.231 852.432C454.242 852.432 454.254 852.432 454.265 852.432L473.401 747.196ZM478.07 746.527C477.318 747.202 476.326 747.612 475.236 747.612C475.026 747.612 474.818 747.597 474.615 747.566L455.504 852.656C456.131 852.885 456.678 853.277 457.095 853.782L544.351 804.247C544.209 803.854 544.131 803.431 544.131 802.99C544.131 802.324 544.308 801.699 544.616 801.16L478.07 746.527ZM479.278 742.12C479.404 742.52 479.471 742.946 479.471 743.387C479.471 744.181 479.252 744.923 478.871 745.558L545.418 800.189C546.067 799.63 546.913 799.292 547.837 799.292C547.894 799.292 547.951 799.295 548.007 799.297L569.883 700.035C569.236 699.773 568.681 699.332 568.277 698.776L479.278 742.12ZM572.224 700.188C571.923 700.267 571.608 700.308 571.282 700.308C571.226 700.308 571.17 700.307 571.114 700.305L549.238 799.566C550.029 799.889 550.683 800.476 551.09 801.218L598.541 785.047L604.035 769.822L572.224 700.188ZM574.413 694.633C574.777 695.205 574.988 695.883 574.988 696.612C574.988 697.88 574.347 698.999 573.371 699.666L604.646 768.129L609.535 754.582L609.532 744.65L599.965 748.344C600.014 747.877 600.06 747.41 600.105 746.942L609.531 743.301L609.527 730.987L599.26 706.245C599.023 704.517 598.76 702.785 598.47 701.055L609.526 727.696L609.504 664.589C609.052 664.498 608.634 664.311 608.273 664.05L574.413 694.633ZM551.497 802.409L597.994 786.562L590.497 807.335L573.794 829.955L572.809 825.904C572.497 826.391 572.183 826.877 571.866 827.362L572.818 831.277L559.794 848.914L554.386 849.937C553.912 850.457 553.436 850.974 552.956 851.488L558.696 850.402L543.541 870.926L538.661 874.623L547.968 806.684C549.954 806.615 551.543 804.987 551.543 802.99C551.543 802.792 551.527 802.598 551.497 802.409ZM546.719 806.515L537.241 875.699L533.238 878.732L457.912 856.558C457.929 856.417 457.937 856.274 457.937 856.129C457.937 855.689 457.86 855.266 457.719 854.875L544.976 805.339C545.426 805.884 546.029 806.298 546.719 806.515ZM457.556 857.764L531.991 879.677L526.782 883.623L491.216 896.357L490.978 894.435C490.575 894.601 490.172 894.766 489.769 894.929L490 896.792L449.739 911.206L427.514 911.897L453.19 859.678C453.52 859.774 453.869 859.826 454.231 859.826C455.69 859.826 456.951 858.986 457.556 857.764ZM452.059 859.124L426.088 911.942L409.685 912.451L402.8 907.609L403.76 907.11C403.099 907.04 402.437 906.967 401.778 906.889L356.069 874.74C356.296 874.265 356.424 873.733 356.427 873.171L450.734 857.354C450.986 858.071 451.453 858.686 452.059 859.124ZM450.526 856.114L356.219 871.931C355.815 870.778 354.853 869.887 353.657 869.576L360.497 788.687C361.346 788.614 362.114 788.254 362.703 787.706L450.94 854.429C450.677 854.934 450.528 855.507 450.526 856.114ZM359.24 788.584L352.401 869.471C351.602 869.539 350.875 869.861 350.302 870.354L273.41 807.247C273.779 806.672 273.993 805.987 273.993 805.253C273.993 805.168 273.991 805.085 273.985 805.001L356.748 786.42C357.189 787.48 358.109 788.291 359.24 788.584ZM272.557 808.176L349.5 871.325C349.192 871.865 349.016 872.489 349.016 873.154C349.016 873.34 349.029 873.523 349.056 873.701L310.131 886.532C309.584 885.578 308.554 884.935 307.373 884.935C307.315 884.935 307.257 884.937 307.201 884.94L300.759 860.175C300.18 859.637 299.606 859.095 299.034 858.549L304.894 881.081L272.127 808.464C272.277 808.378 272.421 808.281 272.557 808.176ZM270.939 808.893L304.51 883.294L243.452 802.885L284.28 842.627C282.359 840.28 280.495 837.88 278.689 835.427L239.561 797.34C239.656 797.213 239.742 797.077 239.818 796.936L266.599 804.902C266.587 805.018 266.583 805.135 266.583 805.253C266.583 807.295 268.241 808.95 270.288 808.95C270.51 808.95 270.728 808.931 270.939 808.893ZM266.929 803.688L240.179 795.731C240.187 795.637 240.192 795.542 240.192 795.445C240.192 794.805 240.001 794.208 239.673 793.71L252.172 782.863C252.035 782.425 251.9 781.986 251.768 781.546L238.784 792.814C238.366 792.532 237.875 792.349 237.346 792.293L237.411 726.338L268.102 802.269C267.601 802.633 267.195 803.122 266.929 803.688ZM310.526 887.727L349.451 874.895C350.075 876.059 351.306 876.851 352.721 876.851C353.745 876.851 354.671 876.437 355.343 875.768L400.382 907.447L391.309 912.161L391.285 912.154C390.917 911.789 390.424 911.551 389.875 911.51L388.414 904.807C387.963 904.72 387.514 904.63 387.066 904.539L388.55 911.349L385.989 910.595L369.217 899.943C367.584 899.431 365.959 898.897 364.343 898.339L381.612 909.306L310.537 888.38C310.545 888.289 310.549 888.197 310.549 888.104C310.549 887.976 310.541 887.85 310.526 887.727ZM612.529 742.145C612.524 742.082 612.521 742.019 612.521 741.955C612.521 741.251 612.847 740.624 613.356 740.215L610.789 734.028L610.792 742.815L612.529 742.145ZM613.441 743.76C613.269 743.635 613.115 743.485 612.985 743.317L610.793 744.163L610.795 751.091L613.441 743.76ZM609.457 778.659C609.486 778.652 609.515 778.646 609.544 778.641L609.537 758.291L605.395 769.767L609.457 778.659ZM607.027 782.155C607.009 782.022 607 781.885 607 781.746C607 780.692 607.517 779.759 608.311 779.182L604.784 771.462L600.069 784.526L607.027 782.155ZM607.822 783.873C607.675 783.712 607.545 783.535 607.434 783.346L599.522 786.042L593.118 803.785L607.822 783.873ZM577.219 844.045C577.229 844.046 577.238 844.046 577.248 844.047L589 811.483L574.182 831.551L577.219 844.045ZM574.883 846.061C574.954 845.325 575.382 844.693 575.993 844.341L573.206 832.873L561.615 848.57L574.883 846.061ZM538.258 877.564C538.358 877.599 538.456 877.639 538.551 877.683L540.893 874.511L538.419 876.386L538.258 877.564ZM534.068 881.015C534.046 880.865 534.035 880.713 534.035 880.557C534.035 880.465 534.039 880.373 534.047 880.282L533.492 880.119L530.734 882.209L534.068 881.015ZM492.699 908.304C493.059 908.362 493.389 908.506 493.669 908.713L523.439 886.157L491.375 897.636L492.699 908.304ZM490.168 909.949C490.342 909.277 490.821 908.729 491.448 908.458L490.159 898.072L453.827 911.079L490.168 909.949ZM423.865 919.319C424.175 919.558 424.442 919.853 424.646 920.19L445.89 912.584L426.885 913.175L423.865 919.319ZM419.747 919.528C420.317 918.992 421.083 918.663 421.929 918.663C422.206 918.663 422.475 918.698 422.733 918.765L425.459 913.219L411.399 913.657L419.747 919.528ZM235.331 711.328C235.346 711.451 235.353 711.575 235.353 711.701C235.353 712.806 234.784 713.781 233.924 714.347L236.157 719.872L236.165 711.055L235.331 711.328ZM233.884 709.029C234.318 709.305 234.681 709.685 234.937 710.134L236.167 709.73L236.174 703.109L233.884 709.029ZM239.065 675.801C239.067 675.843 239.069 675.886 239.069 675.928C239.069 676.632 238.743 677.259 238.233 677.669L241.773 685.139L246.332 673.353L239.065 675.801ZM238.537 674.483C238.573 674.525 238.609 674.57 238.642 674.616L246.922 671.827L254.357 652.606L238.537 674.483ZM270.477 616.298C270.318 616.323 270.155 616.335 269.99 616.335C269.906 616.335 269.823 616.333 269.742 616.326L259.05 643.968L272.8 624.954L270.477 616.298ZM273.165 613.129C273.166 613.142 273.167 613.154 273.167 613.167C273.167 614.304 272.566 615.3 271.664 615.859L273.752 623.637L282.851 611.057L273.165 613.129ZM272.81 611.709C272.843 611.771 272.874 611.835 272.902 611.899L283.951 609.535L295.605 593.419L272.81 611.709ZM310.467 577.344C310.179 577.777 309.725 578.091 309.197 578.197L308.822 581.202L312.832 577.983L310.467 577.344ZM354.816 548.128C354.112 548.091 353.469 547.823 352.961 547.401L324.763 570.025L356.413 559.016L354.816 548.128ZM358.103 545.606C357.878 546.695 357.094 547.58 356.065 547.948L357.625 558.594L394.549 545.75L358.103 545.606ZM342.457 554.214L313.146 574.066L321.211 571.261L342.457 554.214ZM417.932 537.615L398.124 544.506L364.647 544.374L417.932 537.615ZM427.243 537.826L437.194 544.659L452.436 544.719L427.243 537.826ZM237.441 696.338L241.146 686.76L237.458 678.975L237.441 696.338ZM236.154 723.226L236.104 772.582L233.009 715.446L236.154 723.226ZM236.191 685.728L236.177 699.607L233.476 706.591L236.191 685.728ZM256.145 647.984L241.901 667.681L266.638 620.855L256.145 647.984ZM281.252 603.321L298.386 589.574L304.293 581.408L281.252 603.321ZM307.875 578.603L302.09 586.602L307.409 582.334L307.875 578.603ZM310.936 576.167L314.046 577.009L318.28 573.612L310.936 576.167ZM401.542 908.263L393.052 912.674L393.957 912.941L407.59 912.517L401.542 908.263ZM409.303 913.722L397.822 914.079L418.442 920.149L409.303 913.722ZM560.516 850.058L547.095 868.233L574.598 847.395L560.516 850.058ZM610.772 683.557L610.788 730.737L613.919 738.282L610.772 683.557ZM610.796 754.801L613.515 747.268L610.802 770.806L610.796 754.801ZM581.067 837.178L591.621 807.933L606.088 788.341L581.067 837.178ZM544.448 871.818L561.14 859.171L541.029 876.448L544.448 871.818ZM509.487 898.307L527.391 884.742L532.607 882.874L509.487 898.307ZM449.978 912.457L482.574 911.443L428.544 920.13L449.978 912.457ZM604.543 655.19L541.574 572.625L559.535 611.593L604.543 655.19Z" fill="url(#paint2_radial_603_873)"/>
<path d="M72.04 382.36C72.04 385.187 71.5067 387.213 70.44 388.44C69.5333 389.48 68.2533 390 66.6 390H54.56V362.64H65.44C67.04 362.64 68.5333 363.427 69.92 365C71.3333 366.547 72.04 368.2 72.04 369.96C72.04 371.56 71.8 372.893 71.32 373.96C70.84 375.027 70.0267 375.8 68.88 376.28C69.9467 376.813 70.7333 377.627 71.24 378.72C71.7733 379.813 72.04 381.027 72.04 382.36ZM68.64 370.12C68.64 369.107 68.2667 368.213 67.52 367.44C66.7733 366.667 65.88 366.28 64.84 366.28H57.96V374.92H64.72C65.9733 374.92 66.96 374.413 67.68 373.4C68.32 372.52 68.64 371.427 68.64 370.12ZM68.44 382.36C68.44 381.16 68.2 380.2 67.72 379.48C67.16 378.653 66.36 378.24 65.32 378.24H57.88V386.96H65.44C66.48 386.96 67.24 386.52 67.72 385.64C68.2 384.76 68.44 383.667 68.44 382.36ZM92.8494 388.48C92.8494 388.747 92.7294 389.053 92.4894 389.4C92.1427 389.88 91.7027 390.12 91.1694 390.12C90.0761 390.12 89.5294 389.573 89.5294 388.48V386.6L83.0894 390.12H80.7694C79.4361 390.12 78.3027 389.547 77.3694 388.4C76.4361 387.227 75.9694 385.907 75.9694 384.44V370.68C75.9694 370.307 76.1294 370.027 76.4494 369.84C76.7694 369.627 77.1427 369.52 77.5694 369.52C77.9961 369.52 78.3561 369.627 78.6494 369.84C78.9427 370.027 79.0894 370.307 79.0894 370.68V384.28C79.0894 384.947 79.3694 385.507 79.9294 385.96C80.4894 386.413 81.1694 386.64 81.9694 386.64C82.2894 386.64 82.5827 386.613 82.8494 386.56C83.1427 386.507 83.4494 386.387 83.7694 386.2L89.5694 383.04V370.84C89.5694 369.96 90.1427 369.52 91.2894 369.52C92.3294 369.52 92.8494 369.96 92.8494 370.84V388.48ZM105.044 366.24C105.044 366.613 104.764 366.8 104.204 366.8H101.244C100.978 366.8 100.738 366.747 100.524 366.64C100.338 366.533 100.244 366.373 100.244 366.16V362.52C100.244 362.253 100.351 362.04 100.564 361.88C100.778 361.72 101.018 361.64 101.284 361.64H104.124C104.311 361.64 104.511 361.707 104.724 361.84C104.938 361.947 105.044 362.147 105.044 362.44V366.24ZM111.324 388.32C111.324 388.693 111.204 389.067 110.964 389.44C110.751 389.813 110.471 390 110.124 390H98.5644C98.1911 390 97.8578 389.853 97.5644 389.56C97.2978 389.24 97.1644 388.88 97.1644 388.48C97.1644 388.08 97.2844 387.68 97.5244 387.28C97.7911 386.88 98.1378 386.68 98.5644 386.68H102.084V374.12H97.8444C97.4711 374.12 97.1778 373.973 96.9644 373.68C96.7778 373.387 96.6844 373.013 96.6844 372.56C96.6844 372.133 96.7911 371.76 97.0044 371.44C97.2178 371.093 97.5111 370.92 97.8844 370.92H104.884C105.098 370.92 105.324 370.973 105.564 371.08C105.831 371.16 105.964 371.36 105.964 371.68V386.68H110.044C110.338 386.68 110.618 386.853 110.884 387.2C111.178 387.52 111.324 387.893 111.324 388.32ZM128.226 388.4C128.226 388.96 128.106 389.373 127.866 389.64C127.652 389.88 127.266 390 126.706 390H115.786C115.332 390 114.986 389.853 114.746 389.56C114.532 389.24 114.426 388.853 114.426 388.4C114.426 387.84 114.532 387.413 114.746 387.12C114.959 386.827 115.332 386.68 115.866 386.68H119.786V366.44H115.786C115.412 366.44 115.146 366.28 114.986 365.96C114.852 365.613 114.786 365.187 114.786 364.68C114.786 364.12 114.879 363.72 115.066 363.48C115.252 363.24 115.492 363.12 115.786 363.12H122.426C122.746 363.12 122.999 363.28 123.186 363.6C123.399 363.893 123.506 364.213 123.506 364.56V386.68H126.706C127.212 386.68 127.586 386.853 127.826 387.2C128.092 387.52 128.226 387.92 128.226 388.4ZM148.835 388.88C148.835 389.627 148.235 390 147.035 390C146.635 390 146.302 389.907 146.035 389.72C145.768 389.507 145.635 389.227 145.635 388.88V387.56C144.542 388.52 143.875 389.08 143.635 389.24C142.862 389.747 142.022 390 141.115 390H137.035C136.235 390 135.128 389.4 133.715 388.2C132.328 386.973 131.635 385.947 131.635 385.12V375.16C131.635 374.413 132.248 373.493 133.475 372.4C134.702 371.307 135.715 370.76 136.515 370.76H142.155C142.795 370.76 143.395 370.947 143.955 371.32C144.542 371.693 145.102 372.053 145.635 372.4V364.52C145.635 364.2 145.795 363.92 146.115 363.68C146.462 363.44 146.848 363.32 147.275 363.32C147.702 363.32 148.062 363.387 148.355 363.52C148.675 363.653 148.835 363.893 148.835 364.24V388.88ZM145.475 383.16V377.64C145.102 376.627 144.608 375.827 143.995 375.24C143.382 374.627 142.768 374.32 142.155 374.32H136.595C136.115 374.32 135.715 374.587 135.395 375.12C135.075 375.627 134.915 376.107 134.915 376.56V384.28C134.915 384.92 135.568 385.52 136.875 386.08C137.995 386.56 138.902 386.8 139.595 386.8C140.715 386.8 141.915 386.333 143.195 385.4C144.128 384.707 144.888 383.96 145.475 383.16ZM161.888 366.24C161.888 366.613 161.608 366.8 161.048 366.8H158.088C157.821 366.8 157.581 366.747 157.368 366.64C157.181 366.533 157.088 366.373 157.088 366.16V362.52C157.088 362.253 157.194 362.04 157.408 361.88C157.621 361.72 157.861 361.64 158.128 361.64H160.968C161.154 361.64 161.354 361.707 161.568 361.84C161.781 361.947 161.888 362.147 161.888 362.44V366.24ZM168.168 388.32C168.168 388.693 168.048 389.067 167.808 389.44C167.594 389.813 167.314 390 166.968 390H155.408C155.034 390 154.701 389.853 154.408 389.56C154.141 389.24 154.008 388.88 154.008 388.48C154.008 388.08 154.128 387.68 154.368 387.28C154.634 386.88 154.981 386.68 155.408 386.68H158.928V374.12H154.688C154.314 374.12 154.021 373.973 153.808 373.68C153.621 373.387 153.528 373.013 153.528 372.56C153.528 372.133 153.634 371.76 153.848 371.44C154.061 371.093 154.354 370.92 154.728 370.92H161.728C161.941 370.92 162.168 370.973 162.408 371.08C162.674 371.16 162.808 371.36 162.808 371.68V386.68H166.888C167.181 386.68 167.461 386.853 167.728 387.2C168.021 387.52 168.168 387.893 168.168 388.32ZM188.709 388.68C188.709 389 188.589 389.307 188.349 389.6C188.029 390 187.629 390.2 187.149 390.2C186.482 390.2 185.976 390.093 185.629 389.88C185.309 389.667 185.149 389.267 185.149 388.68V375.96C185.149 375.427 184.776 374.973 184.029 374.6C183.309 374.2 182.709 374 182.229 374C181.776 374 181.402 374.053 181.109 374.16C180.816 374.267 180.469 374.44 180.069 374.68L175.109 377.88V388.68C175.109 389.08 174.922 389.44 174.549 389.76C174.202 390.053 173.829 390.2 173.429 390.2C172.896 390.2 172.469 390.093 172.149 389.88C171.856 389.667 171.709 389.267 171.709 388.68V372.4C171.709 372.107 171.856 371.733 172.149 371.28C172.469 370.8 172.896 370.56 173.429 370.56C173.936 370.56 174.336 370.747 174.629 371.12C174.949 371.467 175.109 371.893 175.109 372.4V373.8L179.589 371.16C179.962 370.92 180.322 370.76 180.669 370.68C181.016 370.6 181.416 370.56 181.869 370.56C183.682 370.56 185.229 370.96 186.509 371.76C187.976 372.667 188.709 373.88 188.709 375.4V388.68ZM210.117 391.72C210.117 393.64 209.437 395.307 208.077 396.72C206.717 398.133 205.157 398.84 203.397 398.84H194.837C194.463 398.84 194.157 398.667 193.917 398.32C193.677 397.973 193.557 397.587 193.557 397.16C193.557 396.707 193.663 396.307 193.877 395.96C194.117 395.613 194.437 395.44 194.837 395.44H202.277C203.45 395.44 204.41 395 205.157 394.12C205.93 393.24 206.317 392.173 206.317 390.92V387.92C205.73 388.4 205.277 388.747 204.957 388.96C203.917 389.68 203.17 390.04 202.717 390.04H197.157C196.33 390.04 195.277 389.387 193.997 388.08C192.743 386.747 192.117 385.613 192.117 384.68V376.84C192.117 376.067 193.183 375.04 195.317 373.76C196.383 373.12 197.13 372.8 197.557 372.8H203.397C204.17 372.8 204.823 372.933 205.357 373.2C205.89 373.44 206.437 373.84 206.997 374.4V372.8C207.343 372.453 207.77 372.28 208.277 372.28C209.077 372.28 209.69 372.64 210.117 373.36V391.72ZM206.277 384.24V378.56C206.277 377.947 205.983 377.4 205.397 376.92C204.837 376.44 204.17 376.2 203.397 376.2H198.437C197.717 376.2 197.103 376.427 196.597 376.88C196.09 377.333 195.837 377.893 195.837 378.56V384.68C195.837 385.24 196.157 385.72 196.797 386.12C197.33 386.44 197.877 386.6 198.437 386.6H202.277C203.29 386.6 204.21 386.387 205.037 385.96C205.863 385.507 206.277 384.933 206.277 384.24ZM250.812 382.36C250.812 385.187 250.278 387.213 249.212 388.44C248.305 389.48 247.025 390 245.372 390H233.332V362.64H244.212C245.812 362.64 247.305 363.427 248.692 365C250.105 366.547 250.812 368.2 250.812 369.96C250.812 371.56 250.572 372.893 250.092 373.96C249.612 375.027 248.798 375.8 247.652 376.28C248.718 376.813 249.505 377.627 250.012 378.72C250.545 379.813 250.812 381.027 250.812 382.36ZM247.412 370.12C247.412 369.107 247.038 368.213 246.292 367.44C245.545 366.667 244.652 366.28 243.612 366.28H236.732V374.92H243.492C244.745 374.92 245.732 374.413 246.452 373.4C247.092 372.52 247.412 371.427 247.412 370.12ZM247.212 382.36C247.212 381.16 246.972 380.2 246.492 379.48C245.932 378.653 245.132 378.24 244.092 378.24H236.652V386.96H244.212C245.252 386.96 246.012 386.52 246.492 385.64C246.972 384.76 247.212 383.667 247.212 382.36ZM272.541 376.72C272.541 377.093 272.368 377.387 272.021 377.6C271.701 377.787 271.328 377.88 270.901 377.88C270.475 377.88 270.075 377.773 269.701 377.56C269.328 377.32 269.141 377.053 269.141 376.76C269.141 374.467 268.221 373.24 266.381 373.08C265.848 373.08 265.408 373.133 265.061 373.24C264.741 373.347 264.368 373.573 263.941 373.92L258.501 378.24V389.08C258.501 389.427 258.328 389.693 257.981 389.88C257.635 390.067 257.248 390.16 256.821 390.16C256.368 390.16 255.955 390.08 255.581 389.92C255.208 389.733 255.021 389.453 255.021 389.08V372.28C255.021 371.64 255.181 371.173 255.501 370.88C255.821 370.587 256.261 370.44 256.821 370.44C257.355 370.44 257.768 370.627 258.061 371C258.355 371.373 258.501 371.787 258.501 372.24V373.92L263.861 370.16C264.075 370 264.301 369.893 264.541 369.84C264.781 369.787 265.048 369.76 265.341 369.76C265.795 369.787 266.141 369.8 266.381 369.8C268.115 369.8 269.461 370.173 270.421 370.92C271.835 372.04 272.541 373.973 272.541 376.72ZM285.222 366.24C285.222 366.613 284.942 366.8 284.382 366.8H281.422C281.156 366.8 280.916 366.747 280.702 366.64C280.516 366.533 280.422 366.373 280.422 366.16V362.52C280.422 362.253 280.529 362.04 280.742 361.88C280.956 361.72 281.196 361.64 281.462 361.64H284.302C284.489 361.64 284.689 361.707 284.902 361.84C285.116 361.947 285.222 362.147 285.222 362.44V366.24ZM291.502 388.32C291.502 388.693 291.382 389.067 291.142 389.44C290.929 389.813 290.649 390 290.302 390H278.742C278.369 390 278.036 389.853 277.742 389.56C277.476 389.24 277.342 388.88 277.342 388.48C277.342 388.08 277.462 387.68 277.702 387.28C277.969 386.88 278.316 386.68 278.742 386.68H282.262V374.12H278.022C277.649 374.12 277.356 373.973 277.142 373.68C276.956 373.387 276.862 373.013 276.862 372.56C276.862 372.133 276.969 371.76 277.182 371.44C277.396 371.093 277.689 370.92 278.062 370.92H285.062C285.276 370.92 285.502 370.973 285.742 371.08C286.009 371.16 286.142 371.36 286.142 371.68V386.68H290.222C290.516 386.68 290.796 386.853 291.062 387.2C291.356 387.52 291.502 387.893 291.502 388.32ZM311.524 388.88C311.524 389.627 310.924 390 309.724 390C309.324 390 308.99 389.907 308.724 389.72C308.457 389.507 308.324 389.227 308.324 388.88V387.56C307.23 388.52 306.564 389.08 306.324 389.24C305.55 389.747 304.71 390 303.804 390H299.724C298.924 390 297.817 389.4 296.404 388.2C295.017 386.973 294.324 385.947 294.324 385.12V375.16C294.324 374.413 294.937 373.493 296.164 372.4C297.39 371.307 298.404 370.76 299.204 370.76H304.844C305.484 370.76 306.084 370.947 306.644 371.32C307.23 371.693 307.79 372.053 308.324 372.4V364.52C308.324 364.2 308.484 363.92 308.804 363.68C309.15 363.44 309.537 363.32 309.964 363.32C310.39 363.32 310.75 363.387 311.044 363.52C311.364 363.653 311.524 363.893 311.524 364.24V388.88ZM308.164 383.16V377.64C307.79 376.627 307.297 375.827 306.684 375.24C306.07 374.627 305.457 374.32 304.844 374.32H299.284C298.804 374.32 298.404 374.587 298.084 375.12C297.764 375.627 297.604 376.107 297.604 376.56V384.28C297.604 384.92 298.257 385.52 299.564 386.08C300.684 386.56 301.59 386.8 302.284 386.8C303.404 386.8 304.604 386.333 305.884 385.4C306.817 384.707 307.577 383.96 308.164 383.16ZM333.256 391.72C333.256 393.64 332.576 395.307 331.216 396.72C329.856 398.133 328.296 398.84 326.536 398.84H317.976C317.603 398.84 317.296 398.667 317.056 398.32C316.816 397.973 316.696 397.587 316.696 397.16C316.696 396.707 316.803 396.307 317.016 395.96C317.256 395.613 317.576 395.44 317.976 395.44H325.416C326.59 395.44 327.55 395 328.296 394.12C329.07 393.24 329.456 392.173 329.456 390.92V387.92C328.87 388.4 328.416 388.747 328.096 388.96C327.056 389.68 326.31 390.04 325.856 390.04H320.296C319.47 390.04 318.416 389.387 317.136 388.08C315.883 386.747 315.256 385.613 315.256 384.68V376.84C315.256 376.067 316.323 375.04 318.456 373.76C319.523 373.12 320.27 372.8 320.696 372.8H326.536C327.31 372.8 327.963 372.933 328.496 373.2C329.03 373.44 329.576 373.84 330.136 374.4V372.8C330.483 372.453 330.91 372.28 331.416 372.28C332.216 372.28 332.83 372.64 333.256 373.36V391.72ZM329.416 384.24V378.56C329.416 377.947 329.123 377.4 328.536 376.92C327.976 376.44 327.31 376.2 326.536 376.2H321.576C320.856 376.2 320.243 376.427 319.736 376.88C319.23 377.333 318.976 377.893 318.976 378.56V384.68C318.976 385.24 319.296 385.72 319.936 386.12C320.47 386.44 321.016 386.6 321.576 386.6H325.416C326.43 386.6 327.35 386.387 328.176 385.96C329.003 385.507 329.416 384.933 329.416 384.24ZM353.688 388.16C353.688 388.533 353.541 388.933 353.248 389.36C352.981 389.787 352.661 390 352.288 390H341.128C340.195 390 339.181 389.36 338.088 388.08C337.021 386.773 336.488 385.573 336.488 384.48V375.64C336.488 374.733 337.088 373.693 338.288 372.52C339.488 371.347 340.555 370.76 341.488 370.76H348.328C349.475 370.76 350.648 371.36 351.848 372.56C353.075 373.733 353.688 374.973 353.688 376.28V381.72C353.688 381.933 353.475 382.16 353.048 382.4C352.648 382.64 352.275 382.76 351.928 382.76H340.008V384.36C340.008 384.787 340.328 385.28 340.968 385.84C341.608 386.4 342.155 386.68 342.608 386.68H352.208C352.555 386.68 352.888 386.853 353.208 387.2C353.528 387.547 353.688 387.867 353.688 388.16ZM350.048 379.56V376.28C350.048 375.8 349.808 375.333 349.328 374.88C348.848 374.427 348.368 374.2 347.888 374.2H342.328C341.768 374.2 341.235 374.4 340.728 374.8C340.248 375.173 340.008 375.547 340.008 375.92V379.56H350.048ZM374.154 384.56C374.154 385.973 373.714 387.24 372.834 388.36C371.98 389.453 370.967 390 369.794 390H360.514C359.9 390 359.18 389.72 358.354 389.16C357.394 388.493 356.914 387.773 356.914 387C356.914 386.387 357.034 385.933 357.274 385.64C357.514 385.347 357.994 385.2 358.714 385.2C359.167 385.2 359.7 385.507 360.314 386.12C360.634 386.44 360.954 386.6 361.274 386.6H369.194C369.647 386.6 370.047 386.427 370.394 386.08C370.767 385.733 370.954 385.227 370.954 384.56C370.954 383.6 370.567 382.973 369.794 382.68L359.554 378.68C358.86 378.413 358.327 377.907 357.954 377.16C357.58 376.387 357.394 375.64 357.394 374.92C357.394 373.933 357.714 372.973 358.354 372.04C359.1 370.947 360.007 370.4 361.074 370.4H370.354C371.1 370.4 371.82 370.667 372.514 371.2C373.207 371.707 373.554 372.32 373.554 373.04C373.554 373.52 373.434 373.96 373.194 374.36C372.954 374.733 372.607 374.92 372.154 374.92C371.647 374.92 371.007 374.68 370.234 374.2C369.994 374.04 369.66 373.8 369.234 373.48H361.874C361.554 373.613 361.287 373.787 361.074 374C360.887 374.213 360.794 374.493 360.794 374.84C360.794 375.133 360.86 375.373 360.994 375.56C361.154 375.747 361.367 375.893 361.634 376L371.754 380.04C372.42 380.307 372.98 380.88 373.434 381.76C373.914 382.613 374.154 383.547 374.154 384.56ZM389.086 396.2C389.086 396.493 388.94 396.747 388.646 396.96C388.353 397.173 387.98 397.28 387.526 397.28C386.993 397.28 386.566 397.213 386.246 397.08C385.953 396.947 385.806 396.653 385.806 396.2V388.68H379.726C379.326 388.68 378.993 388.52 378.726 388.2C378.486 387.853 378.366 387.44 378.366 386.96C378.366 386.613 378.42 386.32 378.526 386.08C378.766 385.547 379.166 385.28 379.726 385.28H387.526C387.98 385.28 388.353 385.36 388.646 385.52C388.94 385.68 389.086 385.933 389.086 386.28V396.2Z" fill="white"/>
<path d="M457.68 447.32C457.68 447.747 457.56 448.133 457.32 448.48C457.107 448.827 456.813 449 456.44 449H448C447.36 449 446.787 448.813 446.28 448.44C445.8 448.067 445.4 447.56 445.08 446.92L440.36 437.72C439.88 436.787 439.64 435.92 439.64 435.12C439.64 434.4 439.813 433.68 440.16 432.96L444.32 424.12C444.747 423.213 445.067 422.627 445.28 422.36C445.733 421.8 446.293 421.52 446.96 421.52H456.04C456.333 421.52 456.6 421.667 456.84 421.96C457.08 422.253 457.2 422.6 457.2 423C457.2 424.227 456.813 424.84 456.04 424.84H447.64L443.4 434.44C443.267 434.76 443.2 435.04 443.2 435.28C443.2 435.467 443.267 435.693 443.4 435.96L448.44 445.8H456.48C456.827 445.8 457.107 445.973 457.32 446.32C457.56 446.64 457.68 446.973 457.68 447.32ZM478.657 443.08C478.657 444.707 478.097 446.107 476.977 447.28C475.884 448.427 474.537 449 472.937 449H466.337C464.897 449 463.684 448.48 462.697 447.44C461.737 446.373 461.257 445.08 461.257 443.56V434.92C461.257 433.427 461.804 432.16 462.897 431.12C463.991 430.08 465.297 429.56 466.817 429.56H472.937C474.484 429.56 475.817 430.08 476.937 431.12C478.084 432.133 478.657 433.4 478.657 434.92V443.08ZM475.177 442.76V435.4C475.177 434.76 474.911 434.24 474.377 433.84C473.871 433.413 473.257 433.2 472.537 433.2H467.577C466.804 433.2 466.111 433.4 465.497 433.8C464.884 434.173 464.577 434.707 464.577 435.4V443.08C464.577 443.8 464.791 444.373 465.217 444.8C465.644 445.227 466.177 445.44 466.817 445.44H472.537C473.284 445.44 473.911 445.187 474.417 444.68C474.924 444.173 475.177 443.533 475.177 442.76ZM499.579 447.68C499.579 448 499.459 448.307 499.219 448.6C498.899 449 498.499 449.2 498.019 449.2C497.353 449.2 496.846 449.093 496.499 448.88C496.179 448.667 496.019 448.267 496.019 447.68V434.96C496.019 434.427 495.646 433.973 494.899 433.6C494.179 433.2 493.579 433 493.099 433C492.646 433 492.273 433.053 491.979 433.16C491.686 433.267 491.339 433.44 490.939 433.68L485.979 436.88V447.68C485.979 448.08 485.793 448.44 485.419 448.76C485.073 449.053 484.699 449.2 484.299 449.2C483.766 449.2 483.339 449.093 483.019 448.88C482.726 448.667 482.579 448.267 482.579 447.68V431.4C482.579 431.107 482.726 430.733 483.019 430.28C483.339 429.8 483.766 429.56 484.299 429.56C484.806 429.56 485.206 429.747 485.499 430.12C485.819 430.467 485.979 430.893 485.979 431.4V432.8L490.459 430.16C490.833 429.92 491.193 429.76 491.539 429.68C491.886 429.6 492.286 429.56 492.739 429.56C494.553 429.56 496.099 429.96 497.379 430.76C498.846 431.667 499.579 432.88 499.579 434.4V447.68ZM520.467 447.68C520.467 448 520.347 448.307 520.107 448.6C519.787 449 519.387 449.2 518.907 449.2C518.241 449.2 517.734 449.093 517.387 448.88C517.067 448.667 516.907 448.267 516.907 447.68V434.96C516.907 434.427 516.534 433.973 515.787 433.6C515.067 433.2 514.467 433 513.987 433C513.534 433 513.161 433.053 512.867 433.16C512.574 433.267 512.227 433.44 511.827 433.68L506.867 436.88V447.68C506.867 448.08 506.681 448.44 506.307 448.76C505.961 449.053 505.587 449.2 505.187 449.2C504.654 449.2 504.227 449.093 503.907 448.88C503.614 448.667 503.467 448.267 503.467 447.68V431.4C503.467 431.107 503.614 430.733 503.907 430.28C504.227 429.8 504.654 429.56 505.187 429.56C505.694 429.56 506.094 429.747 506.387 430.12C506.707 430.467 506.867 430.893 506.867 431.4V432.8L511.347 430.16C511.721 429.92 512.081 429.76 512.427 429.68C512.774 429.6 513.174 429.56 513.627 429.56C515.441 429.56 516.987 429.96 518.267 430.76C519.734 431.667 520.467 432.88 520.467 434.4V447.68ZM540.755 447.16C540.755 447.533 540.608 447.933 540.315 448.36C540.048 448.787 539.728 449 539.355 449H528.195C527.262 449 526.248 448.36 525.155 447.08C524.088 445.773 523.555 444.573 523.555 443.48V434.64C523.555 433.733 524.155 432.693 525.355 431.52C526.555 430.347 527.622 429.76 528.555 429.76H535.395C536.542 429.76 537.715 430.36 538.915 431.56C540.142 432.733 540.755 433.973 540.755 435.28V440.72C540.755 440.933 540.542 441.16 540.115 441.4C539.715 441.64 539.342 441.76 538.995 441.76H527.075V443.36C527.075 443.787 527.395 444.28 528.035 444.84C528.675 445.4 529.222 445.68 529.675 445.68H539.275C539.622 445.68 539.955 445.853 540.275 446.2C540.595 446.547 540.755 446.867 540.755 447.16ZM537.115 438.56V435.28C537.115 434.8 536.875 434.333 536.395 433.88C535.915 433.427 535.435 433.2 534.955 433.2H529.395C528.835 433.2 528.302 433.4 527.795 433.8C527.315 434.173 527.075 434.547 527.075 434.92V438.56H537.115ZM561.221 447.08C561.221 447.587 561.087 448.04 560.821 448.44C560.581 448.813 560.247 449 559.821 449H551.581C551.101 449 550.727 448.973 550.461 448.92C550.194 448.84 549.927 448.667 549.661 448.4L544.701 443.44C544.434 443.173 544.181 442.587 543.941 441.68C543.727 440.773 543.621 439.987 543.621 439.32C543.621 438.493 543.714 437.64 543.901 436.76C544.114 435.853 544.474 435.133 544.981 434.6L549.341 430.08C549.581 429.84 549.874 429.667 550.221 429.56C550.594 429.427 550.914 429.36 551.181 429.36H559.021C559.554 429.36 560.021 429.547 560.421 429.92C560.847 430.267 561.061 430.68 561.061 431.16C561.061 431.8 560.914 432.293 560.621 432.64C560.327 432.96 559.794 433.12 559.021 433.12H551.181L547.741 436.44C547.527 436.627 547.354 436.88 547.221 437.2C547.114 437.52 547.061 438 547.061 438.64C547.061 438.96 547.061 439.187 547.061 439.32C547.061 439.667 547.127 440.08 547.261 440.56C547.421 441.013 547.661 441.413 547.981 441.76L551.261 445.44H560.021C560.367 445.44 560.647 445.613 560.861 445.96C561.101 446.28 561.221 446.653 561.221 447.08ZM580.926 445.72C580.926 446.653 580.38 447.453 579.286 448.12C578.326 448.707 577.446 449 576.646 449H572.286C570.98 449 569.793 448.573 568.726 447.72C567.686 446.84 567.166 445.827 567.166 444.68V432.4H564.526C564.18 432.4 563.913 432.24 563.726 431.92C563.566 431.6 563.486 431.227 563.486 430.8C563.486 430.267 563.566 429.84 563.726 429.52C563.913 429.173 564.22 429 564.646 429H567.246V424.32C567.246 423.947 567.42 423.667 567.766 423.48C568.113 423.293 568.54 423.2 569.046 423.2C569.393 423.2 569.713 423.307 570.006 423.52C570.3 423.733 570.446 424 570.446 424.32V429H577.966C578.206 429 578.473 429.2 578.766 429.6C579.086 429.973 579.246 430.373 579.246 430.8C579.246 431.227 579.126 431.6 578.886 431.92C578.646 432.24 578.34 432.4 577.966 432.4H570.446V443.84C570.446 444.24 570.633 444.613 571.006 444.96C571.406 445.28 571.833 445.44 572.286 445.44H576.086C576.62 445.44 577.086 445.147 577.486 444.56C578.42 443.227 579.046 442.56 579.366 442.56C580.006 442.56 580.433 442.693 580.646 442.96C580.886 443.2 581.006 443.573 581.006 444.08C581.006 444.187 580.993 444.427 580.966 444.8C580.94 445.173 580.926 445.48 580.926 445.72ZM593.905 425.24C593.905 425.613 593.625 425.8 593.065 425.8H590.105C589.839 425.8 589.599 425.747 589.385 425.64C589.199 425.533 589.105 425.373 589.105 425.16V421.52C589.105 421.253 589.212 421.04 589.425 420.88C589.639 420.72 589.879 420.64 590.145 420.64H592.985C593.172 420.64 593.372 420.707 593.585 420.84C593.799 420.947 593.905 421.147 593.905 421.44V425.24ZM600.185 447.32C600.185 447.693 600.065 448.067 599.825 448.44C599.612 448.813 599.332 449 598.985 449H587.425C587.052 449 586.719 448.853 586.425 448.56C586.159 448.24 586.025 447.88 586.025 447.48C586.025 447.08 586.145 446.68 586.385 446.28C586.652 445.88 586.999 445.68 587.425 445.68H590.945V433.12H586.705C586.332 433.12 586.039 432.973 585.825 432.68C585.639 432.387 585.545 432.013 585.545 431.56C585.545 431.133 585.652 430.76 585.865 430.44C586.079 430.093 586.372 429.92 586.745 429.92H593.745C593.959 429.92 594.185 429.973 594.425 430.08C594.692 430.16 594.825 430.36 594.825 430.68V445.68H598.905C599.199 445.68 599.479 445.853 599.745 446.2C600.039 446.52 600.185 446.893 600.185 447.32ZM620.727 447.68C620.727 448 620.607 448.307 620.367 448.6C620.047 449 619.647 449.2 619.167 449.2C618.5 449.2 617.993 449.093 617.647 448.88C617.327 448.667 617.167 448.267 617.167 447.68V434.96C617.167 434.427 616.793 433.973 616.047 433.6C615.327 433.2 614.727 433 614.247 433C613.793 433 613.42 433.053 613.127 433.16C612.833 433.267 612.487 433.44 612.087 433.68L607.127 436.88V447.68C607.127 448.08 606.94 448.44 606.567 448.76C606.22 449.053 605.847 449.2 605.447 449.2C604.913 449.2 604.487 449.093 604.167 448.88C603.873 448.667 603.727 448.267 603.727 447.68V431.4C603.727 431.107 603.873 430.733 604.167 430.28C604.487 429.8 604.913 429.56 605.447 429.56C605.953 429.56 606.353 429.747 606.647 430.12C606.967 430.467 607.127 430.893 607.127 431.4V432.8L611.607 430.16C611.98 429.92 612.34 429.76 612.687 429.68C613.033 429.6 613.433 429.56 613.887 429.56C615.7 429.56 617.247 429.96 618.527 430.76C619.993 431.667 620.727 432.88 620.727 434.4V447.68ZM642.135 450.72C642.135 452.64 641.455 454.307 640.095 455.72C638.735 457.133 637.175 457.84 635.415 457.84H626.855C626.481 457.84 626.175 457.667 625.935 457.32C625.695 456.973 625.575 456.587 625.575 456.16C625.575 455.707 625.681 455.307 625.895 454.96C626.135 454.613 626.455 454.44 626.855 454.44H634.295C635.468 454.44 636.428 454 637.175 453.12C637.948 452.24 638.335 451.173 638.335 449.92V446.92C637.748 447.4 637.295 447.747 636.975 447.96C635.935 448.68 635.188 449.04 634.735 449.04H629.175C628.348 449.04 627.295 448.387 626.015 447.08C624.761 445.747 624.135 444.613 624.135 443.68V435.84C624.135 435.067 625.201 434.04 627.335 432.76C628.401 432.12 629.148 431.8 629.575 431.8H635.415C636.188 431.8 636.841 431.933 637.375 432.2C637.908 432.44 638.455 432.84 639.015 433.4V431.8C639.361 431.453 639.788 431.28 640.295 431.28C641.095 431.28 641.708 431.64 642.135 432.36V450.72ZM638.295 443.24V437.56C638.295 436.947 638.001 436.4 637.415 435.92C636.855 435.44 636.188 435.2 635.415 435.2H630.455C629.735 435.2 629.121 435.427 628.615 435.88C628.108 436.333 627.855 436.893 627.855 437.56V443.68C627.855 444.24 628.175 444.72 628.815 445.12C629.348 445.44 629.895 445.6 630.455 445.6H634.295C635.308 445.6 636.228 445.387 637.055 444.96C637.881 444.507 638.295 443.933 638.295 443.24ZM682.51 447.6C682.51 447.973 682.35 448.333 682.03 448.68C681.736 449 681.336 449.16 680.83 449.16C680.35 449.16 679.923 449.013 679.55 448.72C679.203 448.4 679.03 448.027 679.03 447.6V426.48L674.59 433.24C674.296 433.667 673.936 433.88 673.51 433.88C672.95 433.88 672.563 433.693 672.35 433.32L668.31 426.48V447.6C668.31 448.613 667.776 449.12 666.71 449.12C666.31 449.12 665.923 448.96 665.55 448.64C665.203 448.293 665.03 447.907 665.03 447.48V422.16L665.47 421.48H668.87L673.67 428.28L678.07 421.48H681.87L682.51 422.16V447.6ZM695.376 425.24C695.376 425.613 695.096 425.8 694.536 425.8H691.576C691.309 425.8 691.069 425.747 690.856 425.64C690.669 425.533 690.576 425.373 690.576 425.16V421.52C690.576 421.253 690.683 421.04 690.896 420.88C691.109 420.72 691.349 420.64 691.616 420.64H694.456C694.643 420.64 694.843 420.707 695.056 420.84C695.269 420.947 695.376 421.147 695.376 421.44V425.24ZM701.656 447.32C701.656 447.693 701.536 448.067 701.296 448.44C701.083 448.813 700.803 449 700.456 449H688.896C688.523 449 688.189 448.853 687.896 448.56C687.629 448.24 687.496 447.88 687.496 447.48C687.496 447.08 687.616 446.68 687.856 446.28C688.123 445.88 688.469 445.68 688.896 445.68H692.416V433.12H688.176C687.803 433.12 687.509 432.973 687.296 432.68C687.109 432.387 687.016 432.013 687.016 431.56C687.016 431.133 687.123 430.76 687.336 430.44C687.549 430.093 687.843 429.92 688.216 429.92H695.216C695.429 429.92 695.656 429.973 695.896 430.08C696.163 430.16 696.296 430.36 696.296 430.68V445.68H700.376C700.669 445.68 700.949 445.853 701.216 446.2C701.509 446.52 701.656 446.893 701.656 447.32ZM722.197 447.68C722.197 448 722.077 448.307 721.837 448.6C721.517 449 721.117 449.2 720.637 449.2C719.971 449.2 719.464 449.093 719.117 448.88C718.797 448.667 718.637 448.267 718.637 447.68V434.96C718.637 434.427 718.264 433.973 717.517 433.6C716.797 433.2 716.197 433 715.717 433C715.264 433 714.891 433.053 714.597 433.16C714.304 433.267 713.957 433.44 713.557 433.68L708.597 436.88V447.68C708.597 448.08 708.411 448.44 708.037 448.76C707.691 449.053 707.317 449.2 706.917 449.2C706.384 449.2 705.957 449.093 705.637 448.88C705.344 448.667 705.197 448.267 705.197 447.68V431.4C705.197 431.107 705.344 430.733 705.637 430.28C705.957 429.8 706.384 429.56 706.917 429.56C707.424 429.56 707.824 429.747 708.117 430.12C708.437 430.467 708.597 430.893 708.597 431.4V432.8L713.077 430.16C713.451 429.92 713.811 429.76 714.157 429.68C714.504 429.6 714.904 429.56 715.357 429.56C717.171 429.56 718.717 429.96 719.997 430.76C721.464 431.667 722.197 432.88 722.197 434.4V447.68ZM742.565 447.88C742.565 448.627 741.965 449 740.765 449C740.365 449 740.032 448.907 739.765 448.72C739.498 448.507 739.365 448.227 739.365 447.88V446.56C738.272 447.52 737.605 448.08 737.365 448.24C736.592 448.747 735.752 449 734.845 449H730.765C729.965 449 728.858 448.4 727.445 447.2C726.058 445.973 725.365 444.947 725.365 444.12V434.16C725.365 433.413 725.978 432.493 727.205 431.4C728.432 430.307 729.445 429.76 730.245 429.76H735.885C736.525 429.76 737.125 429.947 737.685 430.32C738.272 430.693 738.832 431.053 739.365 431.4V423.52C739.365 423.2 739.525 422.92 739.845 422.68C740.192 422.44 740.578 422.32 741.005 422.32C741.432 422.32 741.792 422.387 742.085 422.52C742.405 422.653 742.565 422.893 742.565 423.24V447.88ZM739.205 442.16V436.64C738.832 435.627 738.338 434.827 737.725 434.24C737.112 433.627 736.498 433.32 735.885 433.32H730.325C729.845 433.32 729.445 433.587 729.125 434.12C728.805 434.627 728.645 435.107 728.645 435.56V443.28C728.645 443.92 729.298 444.52 730.605 445.08C731.725 445.56 732.632 445.8 733.325 445.8C734.445 445.8 735.645 445.333 736.925 444.4C737.858 443.707 738.618 442.96 739.205 442.16ZM763.498 443.56C763.498 444.973 763.058 446.24 762.178 447.36C761.324 448.453 760.311 449 759.138 449H749.858C749.244 449 748.524 448.72 747.698 448.16C746.738 447.493 746.258 446.773 746.258 446C746.258 445.387 746.378 444.933 746.618 444.64C746.858 444.347 747.338 444.2 748.058 444.2C748.511 444.2 749.044 444.507 749.658 445.12C749.978 445.44 750.298 445.6 750.618 445.6H758.538C758.991 445.6 759.391 445.427 759.738 445.08C760.111 444.733 760.298 444.227 760.298 443.56C760.298 442.6 759.911 441.973 759.138 441.68L748.898 437.68C748.204 437.413 747.671 436.907 747.298 436.16C746.924 435.387 746.738 434.64 746.738 433.92C746.738 432.933 747.058 431.973 747.698 431.04C748.444 429.947 749.351 429.4 750.418 429.4H759.698C760.444 429.4 761.164 429.667 761.858 430.2C762.551 430.707 762.898 431.32 762.898 432.04C762.898 432.52 762.778 432.96 762.538 433.36C762.298 433.733 761.951 433.92 761.498 433.92C760.991 433.92 760.351 433.68 759.578 433.2C759.338 433.04 759.004 432.8 758.578 432.48H751.218C750.898 432.613 750.631 432.787 750.418 433C750.231 433.213 750.138 433.493 750.138 433.84C750.138 434.133 750.204 434.373 750.338 434.56C750.498 434.747 750.711 434.893 750.978 435L761.098 439.04C761.764 439.307 762.324 439.88 762.778 440.76C763.258 441.613 763.498 442.547 763.498 443.56Z" fill="white"/>
<defs>
<linearGradient id="paint0_linear_603_873" x1="422.5" y1="0" x2="422.5" y2="1024" gradientUnits="userSpaceOnUse">
<stop stop-color="#752021"/>
<stop offset="1" stop-color="#18181A"/>
</linearGradient>
<radialGradient id="paint1_radial_603_873" cx="0" cy="0" r="1" gradientUnits="userSpaceOnUse" gradientTransform="translate(462.549 894.375) rotate(-103.481) scale(359.505 360.405)">
<stop offset="0.260417" stop-color="#171717"/>
<stop offset="0.727754" stop-color="#0F0F0F"/>
<stop offset="1" stop-color="#8C2122"/>
</radialGradient>
<radialGradient id="paint2_radial_603_873" cx="0" cy="0" r="1" gradientUnits="userSpaceOnUse" gradientTransform="translate(354.589 541.999) rotate(71.4547) scale(215.128 360.882)">
<stop offset="0.22" stop-color="#CB696A"/>
<stop offset="0.775" stop-color="white"/>
<stop offset="1" stop-color="#969393"/>
</radialGradient>
</defs>
</svg>
