<svg width="1000" height="169" viewBox="0 0 1000 169" fill="none" xmlns="http://www.w3.org/2000/svg">
<path d="M304.386 150.395C304.386 155.563 302.57 159.956 298.936 163.574C295.304 167.191 290.893 169 285.702 169C283.108 169 280.772 168.483 278.696 167.449C276.62 166.416 274.674 165.123 272.857 163.574C271.301 162.023 270.133 160.73 269.355 159.697C258.715 146.518 247.687 136.182 236.269 128.688C225.111 121.194 213.304 115.509 200.848 111.633C188.392 107.757 175.158 105.431 161.146 104.656C147.392 103.622 132.602 103.105 116.772 103.105H37.3671V150.395C37.3671 155.563 35.4209 159.956 31.5284 163.574C27.8956 167.191 23.6139 169 18.6836 169C13.4936 169 9.08229 167.191 5.44932 163.574C1.81645 159.956 0 155.563 0 150.395V50.7775C0 43.0252 1.42726 36.0482 4.28165 29.8463C7.13604 23.6445 10.769 18.347 15.1804 13.9541C19.5918 9.5612 24.6519 6.20184 30.3608 3.87616C36.0696 1.29204 41.7784 0 47.4873 0H250.671C257.937 0 264.813 1.42125 271.301 4.26372C277.788 6.84785 283.497 10.4655 288.427 15.1169C293.358 19.7684 297.25 25.195 300.105 31.3968C302.959 37.5986 304.386 44.3172 304.386 51.5527C304.386 56.721 302.57 61.1139 298.936 64.7316C295.304 68.3494 290.893 70.1583 285.702 70.1583C280.513 70.1583 276.101 68.3494 272.468 64.7316C268.835 61.1139 267.019 56.721 267.019 51.5527C267.019 47.6766 265.592 44.4465 262.737 41.8623C260.143 39.2783 257.028 37.7278 253.396 37.211H49.4335C46.0601 37.211 43.3355 38.1154 41.2595 39.9243C39.1836 41.4748 37.886 43.4129 37.3671 45.7386V65.8945H116.772C139.607 65.8945 160.237 67.1865 178.662 69.7706C197.085 72.3548 213.693 76.6185 228.484 82.5619C243.535 88.247 256.899 95.8701 268.576 105.431C280.513 114.734 291.152 126.233 300.494 139.929C303.089 143.289 304.386 146.777 304.386 150.395ZM621.553 65.8945C626.742 65.8945 631.154 67.7034 634.787 71.3211C638.42 74.9388 640.236 79.3318 640.236 84.5C640.236 89.6682 638.42 94.0616 634.787 97.6786C631.154 101.297 626.742 103.105 621.553 103.105H427.711C422.522 103.105 418.11 101.297 414.477 97.6786C410.844 94.0616 409.028 89.6682 409.028 84.5C409.028 79.3318 410.844 74.9388 414.477 71.3211C418.11 67.7034 422.522 65.8945 427.711 65.8945H621.553ZM423.429 37.211C414.348 37.211 406.952 38.8906 401.243 42.25C395.794 45.3509 391.383 49.227 388.009 53.8784C384.894 58.5298 382.689 63.698 381.392 69.3831C380.354 74.8097 379.834 79.8486 379.834 84.5C379.834 89.1513 380.354 94.3193 381.392 100.004C382.689 105.431 384.894 110.47 388.009 115.122C391.383 119.773 395.794 123.779 401.243 127.138C406.952 130.239 414.348 131.789 423.429 131.789H637.901C643.091 131.789 647.503 133.598 651.136 137.216C654.768 140.833 656.585 145.226 656.585 150.395C656.585 155.563 654.768 159.956 651.136 163.574C647.503 167.191 643.091 169 637.901 169H410.974C400.335 169 390.863 166.416 382.56 161.248C374.256 156.08 367.12 149.49 361.151 141.479C355.442 133.21 351.031 124.037 347.917 113.959C344.803 103.881 343.246 94.0616 343.246 84.5C343.246 74.6804 344.803 64.8608 347.917 55.0413C351.29 44.9633 356.091 35.9189 362.319 27.9082C368.547 19.6392 376.072 12.9205 384.894 7.7523C393.718 2.58405 403.708 0 414.866 0H637.901C643.091 0 647.503 1.80886 651.136 5.42662C654.768 9.04431 656.585 13.4373 656.585 18.6055C656.585 23.7737 654.768 28.1667 651.136 31.7844C647.503 35.4022 643.091 37.211 637.901 37.211H423.429ZM732.982 37.211V65.8945H949.01C952.903 65.8945 956.277 64.6025 959.131 62.0184C962.245 59.1759 963.802 55.6873 963.802 51.5527C963.802 47.6766 962.245 44.3172 959.131 41.4748C956.277 38.6323 952.903 37.211 949.01 37.211H732.982ZM947.454 0C954.719 0 961.466 1.42125 967.695 4.26372C974.185 6.84785 979.761 10.4655 984.436 15.1169C989.366 19.7684 993.12 25.195 995.717 31.3968C998.569 37.5986 1000 44.3172 1000 51.5527C1000 58.7882 998.569 65.5068 995.717 71.7088C993.12 77.9106 989.366 83.3372 984.436 87.9885C979.761 92.6396 974.185 96.3864 967.695 99.2295C961.466 101.814 954.719 103.105 947.454 103.105H732.982V150.395C732.982 155.563 731.036 159.956 727.143 163.574C723.511 167.191 719.229 169 714.299 169C709.109 169 704.697 167.191 701.064 163.574C697.432 159.956 695.615 155.563 695.615 150.395V18.6055C695.615 13.4373 697.432 9.04431 701.064 5.42662C704.697 1.80886 709.109 0 714.299 0H947.454Z" fill="white"/>
</svg>
